<svg xmlns="http://www.w3.org/2000/svg" viewBox="0 0 512 512">
  <defs>
    <linearGradient id="bg" x1="0" y1="0" x2="0" y2="1">
      <stop offset="0" stop-color="#0c1417"/>
      <stop offset="1" stop-color="#070b0d"/>
    </linearGradient>
    <radialGradient id="glow1" cx="50%" cy="50%" r="46%">
      <stop offset="0" stop-color="#2c81ff" stop-opacity="0.55"/>
      <stop offset="1" stop-color="#2c81ff" stop-opacity="0"/>
    </radialGradient>
    <radialGradient id="glow2" cx="50%" cy="46%" r="30%">
      <stop offset="0" stop-color="#2c81ff" stop-opacity="0.35"/>
      <stop offset="1" stop-color="#2c81ff" stop-opacity="0"/>
    </radialGradient>
    <filter id="blur1"><feGaussianBlur stdDeviation="9"/></filter>
  </defs>
  <rect width="512" height="512" rx="113" fill="url(#bg)"/>
  <rect width="512" height="512" rx="113" fill="url(#glow1)"/>
  <rect width="512" height="512" rx="113" fill="url(#glow2)"/>
  <polygon points="145.41,264.00 150.94,263.50 156.47,263.30 162.00,263.16 167.53,263.04 173.06,262.94 178.59,262.86 184.12,262.78 189.64,262.72 195.17,262.66 200.70,262.61 206.23,262.57 211.76,262.53 217.29,262.50 222.82,262.47 228.35,262.45 233.88,262.43 239.41,262.42 244.94,262.41 250.47,262.40 256.00,262.40 261.53,262.40 267.06,262.41 272.59,262.42 278.12,262.43 283.65,262.45 289.18,262.47 294.71,262.50 300.24,262.53 305.77,262.57 311.30,262.61 316.83,262.66 322.36,262.72 327.88,262.78 333.41,262.86 338.94,262.94 344.47,263.04 350.00,263.16 355.53,263.30 361.06,263.50 366.59,264.00 366.59,264.00 361.06,264.50 355.53,264.70 350.00,264.84 344.47,264.96 338.94,265.06 333.41,265.14 327.88,265.22 322.36,265.28 316.83,265.34 311.30,265.39 305.77,265.43 300.24,265.47 294.71,265.50 289.18,265.53 283.65,265.55 278.12,265.57 272.59,265.58 267.06,265.59 261.53,265.60 256.00,265.60 250.47,265.60 244.94,265.59 239.41,265.58 233.88,265.57 228.35,265.55 222.82,265.53 217.29,265.50 211.76,265.47 206.23,265.43 200.70,265.39 195.17,265.34 189.64,265.28 184.12,265.22 178.59,265.14 173.06,265.06 167.53,264.96 162.00,264.84 156.47,264.70 150.94,264.50 145.41,264.00" fill="#2c81ff" opacity="0.9" filter="url(#blur1)"/>
  <polygon points="145.41,264.00 150.94,263.50 156.47,263.30 162.00,263.16 167.53,263.04 173.06,262.94 178.59,262.86 184.12,262.78 189.64,262.72 195.17,262.66 200.70,262.61 206.23,262.57 211.76,262.53 217.29,262.50 222.82,262.47 228.35,262.45 233.88,262.43 239.41,262.42 244.94,262.41 250.47,262.40 256.00,262.40 261.53,262.40 267.06,262.41 272.59,262.42 278.12,262.43 283.65,262.45 289.18,262.47 294.71,262.50 300.24,262.53 305.77,262.57 311.30,262.61 316.83,262.66 322.36,262.72 327.88,262.78 333.41,262.86 338.94,262.94 344.47,263.04 350.00,263.16 355.53,263.30 361.06,263.50 366.59,264.00 366.59,264.00 361.06,264.50 355.53,264.70 350.00,264.84 344.47,264.96 338.94,265.06 333.41,265.14 327.88,265.22 322.36,265.28 316.83,265.34 311.30,265.39 305.77,265.43 300.24,265.47 294.71,265.50 289.18,265.53 283.65,265.55 278.12,265.57 272.59,265.58 267.06,265.59 261.53,265.60 256.00,265.60 250.47,265.60 244.94,265.59 239.41,265.58 233.88,265.57 228.35,265.55 222.82,265.53 217.29,265.50 211.76,265.47 206.23,265.43 200.70,265.39 195.17,265.34 189.64,265.28 184.12,265.22 178.59,265.14 173.06,265.06 167.53,264.96 162.00,264.84 156.47,264.70 150.94,264.50 145.41,264.00" fill="#4696ff"/>
  <path transform="translate(145.65,268.00) scale(0.05925,-0.05925)" fill="#1f9d75" d="M1048 179Q1020 145 978.0 112.0Q936 79 877.5 52.5Q819 26 744.0 10.5Q669 -5 576 -5Q425 -5 308.0 52.5Q191 110 125.5 223.5Q60 337 60 506Q60 675 128.0 800.5Q196 926 318.0 995.5Q440 1065 603 1065Q809 1065 927.5 950.5Q1046 836 1051 634Q1052 597 1050.0 567.0Q1048 537 1042 503Q1027 504 978.0 505.0Q929 506 867.5 507.5Q806 509 751.5 510.0Q697 511 671 511Q584 511 502.5 503.0Q421 495 366 486Q366 468 368.5 450.5Q371 433 376 417Q389 376 421.5 347.0Q454 318 499.5 302.5Q545 287 596 287Q642 287 680.5 298.5Q719 310 751.0 329.0Q783 348 809.5 370.5Q836 393 859 415Q865 410 890.0 385.5Q915 361 946.0 325.5Q977 290 1005.0 251.0Q1033 212 1048 179ZM377 673Q422 680 488.0 686.0Q554 692 641 692Q688 692 724.5 691.0Q761 690 776 689Q776 710 770 735Q762 769 738.5 800.0Q715 831 678.5 850.0Q642 869 591 869Q527 869 479.5 841.0Q432 813 406.0 768.0Q380 723 377 673Z"/>
  <path transform="translate(211.71,268.00) scale(0.05925,-0.05925)" fill="#1f9d75" d="M652 440Q584 440 530.0 442.0Q476 444 426.5 447.0Q377 450 320 456Q320 590 373.5 696.0Q427 802 526 890Q581 939 613.5 984.5Q646 1030 646 1076Q646 1132 608.5 1163.0Q571 1194 507 1194Q457 1194 417.0 1179.0Q377 1164 345.5 1135.5Q314 1107 290.5 1067.5Q267 1028 249 978L-4 1122Q22 1235 97.5 1313.0Q173 1391 281.5 1431.5Q390 1472 511 1472Q642 1472 746.5 1432.5Q851 1393 912.0 1313.5Q973 1234 973 1114Q973 1025 950.0 963.5Q927 902 889.5 858.0Q852 814 809 776Q770 741 734.5 692.0Q699 643 676.5 580.5Q654 518 652 440ZM508 -10Q425 -10 363.5 37.5Q302 85 302 171Q302 218 330.0 259.5Q358 301 404.0 326.5Q450 352 501 352Q592 352 652.5 305.5Q713 259 713 183Q713 129 684.5 85.0Q656 41 609.5 15.5Q563 -10 508 -10Z"/>
  <path transform="translate(273.09,268.00) scale(0.05925,-0.05925)" fill="#1f9d75" d="M914 131Q895 94 854.5 52.5Q814 11 749.5 -18.5Q685 -48 593 -48Q472 -48 395.5 3.0Q319 54 282.5 139.0Q246 224 246 325Q246 380 247.5 442.5Q249 505 251.0 566.5Q253 628 255.5 683.5Q258 739 260.5 781.0Q263 823 264 846Q185 838 118.0 828.5Q51 819 25 813Q15 869 10.0 927.0Q5 985 2.5 1028.0Q0 1071 0 1081Q58 1089 124.0 1095.5Q190 1102 263 1105Q262 1129 261.0 1180.0Q260 1231 258 1272Q257 1309 254.0 1346.5Q251 1384 249 1407L545 1433Q545 1421 545.5 1377.0Q546 1333 546 1271Q546 1240 547.0 1199.5Q548 1159 549 1120Q582 1122 626.0 1124.0Q670 1126 696 1127Q738 1129 772.0 1129.5Q806 1130 828.5 1130.0Q851 1130 859 1129Q865 1082 867.0 1009.5Q869 937 869 881Q859 882 804.0 880.5Q749 879 696 876Q659 875 614.0 872.0Q569 869 543 866Q542 845 540.5 808.5Q539 772 537.5 726.5Q536 681 534.5 632.5Q533 584 532.0 539.0Q531 494 531 459Q531 393 537.5 340.5Q544 288 566.5 257.5Q589 227 636 227Q667 227 689.0 245.0Q711 263 725.5 287.5Q740 312 751 331Q764 313 787.5 283.5Q811 254 837.5 222.0Q864 190 885.5 165.0Q907 140 914 131Z"/>
  <path transform="translate(330.21,268.00) scale(0.05925,-0.05925)" fill="#1f9d75" d="M429 2Q412 1 364.5 -2.5Q317 -6 264 -6Q225 -6 185.5 -3.5Q146 -1 108 3Q113 29 119.5 109.5Q126 190 132.5 299.0Q139 408 145.5 524.5Q152 641 155.5 743.0Q159 845 159 907Q179 908 218.0 910.0Q257 912 302.0 913.5Q347 915 388.0 916.5Q429 918 453 918Q458 887 461.0 818.0Q464 749 464 664Q464 573 461.5 471.0Q459 369 454.5 273.5Q450 178 443.0 105.5Q436 33 429 2ZM317 1047Q227 1047 166.0 1099.5Q105 1152 105 1238Q105 1297 134.0 1339.0Q163 1381 209.5 1403.5Q256 1426 308 1426Q391 1426 445.5 1372.0Q500 1318 500 1233Q500 1154 448.0 1100.5Q396 1047 317 1047Z"/>
  <path transform="translate(71.68,418.00) scale(0.05925,-0.05925)" fill="#2f8ce0" d="M134 -8Q129 57 124.5 158.0Q120 259 116.5 377.5Q113 496 110.5 613.0Q108 730 107.0 829.5Q106 929 106 990Q130 996 170.0 1002.5Q210 1009 255.0 1014.5Q300 1020 340.5 1023.5Q381 1027 406 1027Q407 1011 408.0 986.5Q409 962 409.5 936.0Q410 910 410.0 889.0Q410 868 410 857Q416 876 438.0 906.0Q460 936 498.5 966.0Q537 996 592.0 1016.5Q647 1037 719 1037Q788 1037 836.0 1011.0Q884 985 916.0 943.0Q948 901 966 852Q975 828 980.5 803.0Q986 778 989 754Q1011 827 1062.5 893.5Q1114 960 1191.0 1002.5Q1268 1045 1368 1045Q1488 1045 1565.5 1002.0Q1643 959 1686.0 875.0Q1729 791 1746.0 669.0Q1763 547 1763 390Q1763 328 1760.5 260.0Q1758 192 1754.0 123.0Q1750 54 1746 -11Q1710 -13 1671.0 -14.5Q1632 -16 1593 -16Q1554 -16 1513.5 -14.5Q1473 -13 1432 -10Q1452 139 1465.0 264.5Q1478 390 1478 485Q1478 624 1446.5 697.0Q1415 770 1339 770Q1270 770 1227.0 728.0Q1184 686 1160.0 612.0Q1136 538 1125.5 440.5Q1115 343 1111 232Q1109 176 1107.0 115.0Q1105 54 1105 -9Q1085 -10 1048.5 -11.5Q1012 -13 972 -13Q925 -13 881.5 -11.5Q838 -10 818 -7Q817 61 817.0 121.0Q817 181 817 244Q817 358 811.5 454.5Q806 551 789.0 622.5Q772 694 738.5 734.0Q705 774 648 774Q609 774 572.0 757.0Q535 740 504.5 713.0Q474 686 453.5 653.5Q433 621 425 589Q431 430 438.0 299.0Q445 168 451.0 85.5Q457 3 459 -14Q448 -15 413.0 -16.0Q378 -17 352 -17Q289 -17 226.0 -14.0Q163 -11 134 -8Z"/>
  <path transform="translate(181.76,418.00) scale(0.05925,-0.05925)" fill="#2f8ce0" d="M510 -17Q387 -17 285.0 16.5Q183 50 122.5 125.5Q62 201 62 326Q62 451 132.5 527.5Q203 604 318.5 638.5Q434 673 567 673Q619 673 667.0 665.0Q715 657 751.5 646.0Q788 635 804 625Q803 651 793.5 680.0Q784 709 767 729Q737 770 685.5 797.5Q634 825 550 825Q465 825 400.0 786.5Q335 748 301 700L57 857Q102 921 178.5 969.0Q255 1017 352.5 1044.0Q450 1071 557 1071Q734 1071 844.0 1013.0Q954 955 1007 851Q1032 801 1048.0 741.0Q1064 681 1070 603Q1074 536 1076.0 478.0Q1078 420 1080 368Q1082 292 1097.0 269.0Q1112 246 1140 246Q1166 246 1186.5 260.5Q1207 275 1213 299L1317 100Q1306 54 1255.0 23.0Q1204 -8 1126 -8Q1069 -8 1018.0 11.5Q967 31 934.0 64.5Q901 98 895 141Q879 103 828.0 66.5Q777 30 697.0 6.5Q617 -17 510 -17ZM577 218Q624 218 673.5 232.5Q723 247 763.5 269.0Q804 291 826 314Q824 345 822.5 378.0Q821 411 822 434Q800 443 738.5 453.5Q677 464 610 464Q549 464 496.0 451.0Q443 438 409.5 411.0Q376 384 376 341Q376 295 401.0 268.0Q426 241 471.0 229.5Q516 218 577 218Z"/>
  <path transform="translate(258.49,418.00) scale(0.05925,-0.05925)" fill="#2f8ce0" d="M914 131Q895 94 854.5 52.5Q814 11 749.5 -18.5Q685 -48 593 -48Q472 -48 395.5 3.0Q319 54 282.5 139.0Q246 224 246 325Q246 380 247.5 442.5Q249 505 251.0 566.5Q253 628 255.5 683.5Q258 739 260.5 781.0Q263 823 264 846Q185 838 118.0 828.5Q51 819 25 813Q15 869 10.0 927.0Q5 985 2.5 1028.0Q0 1071 0 1081Q58 1089 124.0 1095.5Q190 1102 263 1105Q262 1129 261.0 1180.0Q260 1231 258 1272Q257 1309 254.0 1346.5Q251 1384 249 1407L545 1433Q545 1421 545.5 1377.0Q546 1333 546 1271Q546 1240 547.0 1199.5Q548 1159 549 1120Q582 1122 626.0 1124.0Q670 1126 696 1127Q738 1129 772.0 1129.5Q806 1130 828.5 1130.0Q851 1130 859 1129Q865 1082 867.0 1009.5Q869 937 869 881Q859 882 804.0 880.5Q749 879 696 876Q659 875 614.0 872.0Q569 869 543 866Q542 845 540.5 808.5Q539 772 537.5 726.5Q536 681 534.5 632.5Q533 584 532.0 539.0Q531 494 531 459Q531 393 537.5 340.5Q544 288 566.5 257.5Q589 227 636 227Q667 227 689.0 245.0Q711 263 725.5 287.5Q740 312 751 331Q764 313 787.5 283.5Q811 254 837.5 222.0Q864 190 885.5 165.0Q907 140 914 131Z"/>
  <path transform="translate(315.60,418.00) scale(0.05925,-0.05925)" fill="#2f8ce0" d="M1048 179Q1020 145 978.0 112.0Q936 79 877.5 52.5Q819 26 744.0 10.5Q669 -5 576 -5Q425 -5 308.0 52.5Q191 110 125.5 223.5Q60 337 60 506Q60 675 128.0 800.5Q196 926 318.0 995.5Q440 1065 603 1065Q809 1065 927.5 950.5Q1046 836 1051 634Q1052 597 1050.0 567.0Q1048 537 1042 503Q1027 504 978.0 505.0Q929 506 867.5 507.5Q806 509 751.5 510.0Q697 511 671 511Q584 511 502.5 503.0Q421 495 366 486Q366 468 368.5 450.5Q371 433 376 417Q389 376 421.5 347.0Q454 318 499.5 302.5Q545 287 596 287Q642 287 680.5 298.5Q719 310 751.0 329.0Q783 348 809.5 370.5Q836 393 859 415Q865 410 890.0 385.5Q915 361 946.0 325.5Q977 290 1005.0 251.0Q1033 212 1048 179ZM377 673Q422 680 488.0 686.0Q554 692 641 692Q688 692 724.5 691.0Q761 690 776 689Q776 710 770 735Q762 769 738.5 800.0Q715 831 678.5 850.0Q642 869 591 869Q527 869 479.5 841.0Q432 813 406.0 768.0Q380 723 377 673Z"/>
  <path transform="translate(381.66,418.00) scale(0.05925,-0.05925)" fill="#2f8ce0" d="M493 -79Q376 -79 278.5 -50.5Q181 -22 113.5 16.5Q46 55 16 86Q22 105 39.5 141.5Q57 178 81.0 221.0Q105 264 129.0 301.0Q153 338 172 356Q220 315 276.0 275.5Q332 236 391.0 211.0Q450 186 501 186Q541 186 573.0 196.5Q605 207 623.5 228.0Q642 249 642 280Q642 316 607.5 349.5Q573 383 519.0 413.0Q465 443 406 467Q325 500 255.0 544.5Q185 589 142.0 654.5Q99 720 99 818Q99 918 158.0 986.0Q217 1054 312.5 1089.0Q408 1124 517 1124Q620 1124 726.0 1095.5Q832 1067 899 1014Q893 995 873.5 956.0Q854 917 826.5 872.5Q799 828 768 791Q727 826 665.0 858.0Q603 890 535 890Q501 890 467.5 883.0Q434 876 412.5 858.0Q391 840 391 809Q391 779 414.0 755.5Q437 732 481.5 710.0Q526 688 586 664Q646 640 708.0 607.5Q770 575 822.5 530.0Q875 485 907.0 425.5Q939 366 939 289Q939 166 878.0 84.0Q817 2 715.5 -38.5Q614 -79 493 -79Z"/>
  <rect x="2" y="2" width="508" height="508" rx="111" fill="none" stroke="#ffffff" stroke-opacity="0.12" stroke-width="3"/>
</svg>
